Coordinates
version=1
nRows=8
nColumns=36
inDegrees=yes

Units are S.I. units (second, meters, Newtons, ...)
If the header above contains a line with 'inDegrees', this indicates whether rotational values are in degrees (yes) or radians (no).

endheader
time	pelvis_tilt	pelvis_list	pelvis_rotation	pelvis_tx	pelvis_ty	pelvis_tz	hip_flexion_r	hip_adduction_r	hip_rotation_r	knee_angle_r	knee_angle_r_beta	ankle_angle_r	subtalar_angle_r	mtp_angle_r	hip_flexion_l	hip_adduction_l	hip_rotation_l	knee_angle_l	knee_angle_l_beta	ankle_angle_l	subtalar_angle_l	mtp_angle_l	lumbar_extension	lumbar_bending	lumbar_rotation	arm_flex_r	arm_add_r	arm_rot_r	elbow_flex_r	pro_sup_r	arm_flex_l	arm_add_l	arm_rot_l	elbow_flex_l	pro_sup_l
     17.96666670	    -17.14269499	      2.88354640	     -3.86577978	      0.31837615	      0.97103064	     -0.04807605	      8.53914943	     -7.97579554	      2.32575185	      0.16541725	      0.00288708	      7.86764590	     -0.67462923	     -7.49999987	      9.41190783	     -1.90604534	     -1.59948250	      4.41231970	      0.07700951	      6.44462369	     -3.24983755	     -7.49999987	     17.14848584	     -1.67453740	     -0.49869862	     -8.76794772	    -13.79395095	     30.29427020	     31.71449204	     60.99825215	     -7.94016285	    -11.02556084	     17.93392927	     30.82886804	     70.83604929
     17.98333330	    -17.28874751	      2.89455133	     -3.89243965	      0.31825049	      0.97095697	     -0.04808328	      8.73484860	     -7.94384583	      2.32769352	      0.16205578	      0.00282841	      8.03501272	     -0.49086647	     -7.49999987	      9.55927968	     -1.91906889	     -1.57630008	      4.34887115	      0.07590212	      6.40160660	     -3.26699833	     -7.49999987	     17.33775090	     -1.73200033	     -0.35597457	     -8.67315354	    -13.91134317	     31.11733176	     31.66172143	     60.57843289	     -7.76476580	    -11.09871614	     19.01238749	     30.34527926	     71.39507529
     18.00000000	    -17.35033782	      2.90446859	     -3.95320529	      0.31819673	      0.97068113	     -0.04814955	      8.80945007	     -7.94728052	      2.47538981	      0.15908378	      0.00277654	      7.94645410	     -0.59564169	     -7.49999987	      9.58340876	     -1.92370448	     -1.69958161	      4.28774983	      0.07483535	      6.40127329	     -3.23273093	     -7.49999987	     17.36933097	     -1.76609811	     -0.24078703	     -8.71197930	    -13.96312517	     31.06148745	     31.83732266	     60.34253198	     -7.93272339	    -11.00518666	     18.95365390	     30.45497832	     70.97510288
     18.01666670	    -17.40843994	      2.89481234	     -3.92686224	      0.31840194	      0.97070877	     -0.04825597	      8.82841829	     -7.95604776	      2.51900055	      0.16257977	      0.00283755	      7.90331878	     -0.64965022	     -7.49999987	      9.64251975	     -1.93082407	     -1.73231625	      4.30765648	      0.07518279	      6.41579134	     -3.25641471	     -7.49999987	     17.36831694	     -1.83177449	     -0.24321120	     -8.66927974	    -13.96167223	     31.24060328	     31.78902663	     60.20457364	     -7.90800486	    -10.96585293	     19.13412353	     30.33656204	     70.94430581
     18.03333330	    -17.47471960	      2.89060971	     -3.92090479	      0.31844259	      0.97057921	     -0.04831401	      8.88127664	     -7.95471082	      2.49971512	      0.16405878	      0.00286337	      7.88481618	     -0.70012475	     -7.49999987	      9.69904943	     -1.93504233	     -1.75064159	      4.27084005	      0.07454022	      6.42019114	     -3.21384511	     -7.49999987	     17.43754919	     -1.86973351	     -0.17102630	     -8.75099835	    -14.02962634	     31.33710490	     31.94104639	     60.09259636	     -8.01937956	    -10.93732433	     19.19427518	     30.44507006	     70.79180741
     18.05000000	    -17.46322825	      2.88762726	     -3.97524862	      0.31861420	      0.97072850	     -0.04828119	      8.87240992	     -7.95436873	      2.50419359	      0.16499893	      0.00287977	      7.74271677	     -0.76339310	     -7.49999987	      9.62899494	     -1.94027281	     -1.83517351	      4.17831273	      0.07292531	      6.38117457	     -3.19797403	     -7.49999987	     17.43869226	     -1.86043496	     -0.04038195	     -8.77175084	    -14.03374559	     31.46258430	     31.90933757	     59.98483156	     -8.06111769	    -10.84762178	     19.21355798	     30.40011870	     70.69745984
     18.06666670	    -17.50281390	      2.88562208	     -3.97195047	      0.31861478	      0.97055632	     -0.04831691	      8.90459140	     -7.95945197	      2.49756865	      0.16593967	      0.00289619	      7.61774713	     -0.83835248	     -7.49999987	      9.64372412	     -1.93796272	     -1.84096167	      4.12616220	      0.07201512	      6.33516596	     -3.20037148	     -7.49999987	     17.50055121	     -1.88293453	      0.02635092	     -8.94773618	    -14.01093137	     31.63819545	     31.88437704	     59.85699370	     -8.12139415	    -10.79902359	     19.18195328	     30.45478753	     70.46210150
     18.08333330	    -17.61091864	      2.90159862	     -3.98528491	      0.31880977	      0.97062960	     -0.04829243	      9.01880854	     -7.97187530	      2.46589770	      0.16726195	      0.00291927	      7.47424271	     -0.86801810	     -7.49999987	      9.72706687	     -1.92542729	     -1.96703298	      4.07520525	      0.07112575	      6.22152249	     -3.10605109	     -7.49999987	     17.64877506	     -1.93376793	      0.02981388	     -9.25404125	    -13.97216892	     31.69756236	     32.06724500	     59.78980158	     -8.20348962	    -10.83406841	     19.13834037	     30.73471501	     70.27752245
